<svg width="155" height="36" viewBox="0 0 155 36" fill="none" xmlns="http://www.w3.org/2000/svg">
<g clip-path="url(#clip0_25_189)">
<path d="M12.3489 21.6393C11.945 21.6393 11.5412 21.6393 11.1373 21.6393C10.9667 21.6393 10.9041 21.7016 10.8927 21.8601C10.8228 22.8108 10.6917 23.7561 10.5002 24.6902C10.4604 24.8769 10.5002 24.9279 10.7221 24.8883C11.1771 24.792 11.6435 24.7298 12.1043 24.6675C12.565 24.6052 13.0826 24.543 13.5661 24.4864C13.6969 24.4864 13.7538 24.4241 13.7538 24.2883C13.7538 23.4676 13.7538 22.6468 13.7538 21.8261C13.7538 21.6959 13.7026 21.6563 13.5775 21.662H12.3489M21.7342 22.9298C21.7342 23.3487 21.7342 23.7675 21.7342 24.1864C21.7342 24.4411 21.8593 24.5034 22.0698 24.5203C22.9798 24.5899 23.8842 24.7185 24.7773 24.9052C24.9366 24.9392 25.0105 24.9052 24.9764 24.7241C24.7978 23.7767 24.6687 22.8208 24.5896 21.8601C24.5896 21.7072 24.5157 21.6676 24.3678 21.6676H21.9105C21.7683 21.6676 21.7285 21.7186 21.7285 21.8544C21.7285 22.2167 21.7285 22.5789 21.7285 22.9355M13.7652 12.3906C13.7652 12 13.7652 11.5415 13.7254 11.0831C13.7254 10.9416 13.6969 10.868 13.5263 10.8567C12.5878 10.7718 11.6549 10.6472 10.7221 10.4774C10.4775 10.4321 10.4718 10.4774 10.5116 10.7038C10.595 11.1868 10.6709 11.6698 10.7391 12.1528C10.8074 12.6057 10.8643 13.0585 10.9155 13.5113C10.9155 13.6358 10.978 13.6868 11.1202 13.6868C11.9166 13.6868 12.7186 13.6868 13.5149 13.7207C13.714 13.7207 13.7709 13.6585 13.7652 13.466C13.7652 13.1321 13.7652 12.7924 13.7652 12.3906ZM21.7285 12.4472C21.7285 12.7868 21.7285 13.1207 21.7285 13.4547C21.7285 13.6584 21.7911 13.7207 21.9958 13.7207C22.7694 13.7207 23.543 13.7207 24.3166 13.6811C24.4758 13.6811 24.527 13.6075 24.5555 13.466C24.7659 12.5151 24.783 11.5359 24.9991 10.5906C24.9991 10.4887 24.9991 10.4321 24.8626 10.4604C23.8843 10.6416 22.9059 10.7774 21.9162 10.868C21.7854 10.868 21.7854 10.9529 21.774 11.0491C21.7285 11.5132 21.7456 11.983 21.7342 12.4472M30.619 27.3901C31.0323 27.3643 31.4313 27.229 31.7743 26.9981C32.1174 26.7672 32.3921 26.4491 32.57 26.0769C32.7913 25.6749 32.8908 25.2178 32.8564 24.7607C32.8221 24.3037 32.6554 23.8663 32.3766 23.5015C31.9769 22.9941 31.4217 22.6304 30.7953 22.4657C29.697 22.1239 28.5637 21.9056 27.4166 21.8148C27.2801 21.8148 27.263 21.8714 27.2744 21.9789C27.3085 22.2676 27.3369 22.5449 27.3768 22.8563C27.4661 23.8111 27.6842 24.7497 28.0252 25.6467C28.2045 26.1809 28.5558 26.6412 29.0248 26.9564C29.4937 27.2716 30.0541 27.424 30.619 27.3901ZM2.65071 24.7185C2.61922 25.0994 2.67446 25.4824 2.81234 25.8391C2.95021 26.1959 3.16716 26.517 3.44704 26.7788C3.93663 27.2027 4.57317 27.4199 5.22118 27.3839C5.8692 27.348 6.47755 27.0618 6.91676 26.5863C7.28553 26.1105 7.5544 25.5658 7.7074 24.9845C7.96655 24.0365 8.13416 23.0661 8.20795 22.0865C8.23639 21.7921 8.20795 21.7978 7.9463 21.8431C7.50832 21.9053 7.06465 21.945 6.62667 22.0129C5.70988 22.1128 4.81609 22.3634 3.98171 22.7544C3.60337 22.9253 3.2793 23.1961 3.04466 23.5374C2.81002 23.8786 2.67378 24.2773 2.65071 24.6902M8.00318 5.23043C8.01438 5.64472 8.13965 6.04801 8.36532 6.39633C8.59099 6.74466 8.90842 7.02467 9.283 7.20584C10.5913 7.89072 12.0303 8.00958 13.458 8.18505C13.5889 8.18505 13.6002 8.13977 13.5832 8.02091C13.5149 7.55677 13.4751 7.09263 13.4069 6.63416C13.3009 5.68778 13.0315 4.76673 12.6105 3.91161C12.3597 3.43188 11.9542 3.04996 11.459 2.8272C10.9639 2.60444 10.4078 2.55378 9.88025 2.68335C9.31731 2.81948 8.8208 3.14915 8.47839 3.61416C8.13599 4.07917 7.96969 4.64961 8.00887 5.22478M27.5019 4.56253C27.536 3.56068 26.1481 2.33808 24.5327 2.66637C24.1031 2.75861 23.7052 2.96133 23.3789 3.25431C23.0525 3.54729 22.809 3.92029 22.6727 4.33612C22.2536 5.49082 22.0027 6.69926 21.9276 7.92469C21.8935 8.2077 21.9276 8.2077 22.2063 8.16241C22.485 8.11713 22.8775 8.0775 23.2074 8.03222C24.1499 7.93794 25.0725 7.70128 25.9434 7.33037C26.9217 6.88887 27.4621 6.16437 27.5019 4.56253ZM27.5019 30.2654C27.5019 30.1579 27.5019 30.0503 27.5019 29.9485C27.5019 29.8466 27.5019 29.8692 27.5019 29.8239C27.4202 29.3784 27.2182 28.9635 26.9176 28.6235C26.617 28.2835 26.2291 28.0312 25.7955 27.8938C24.5859 27.4718 23.3254 27.211 22.047 27.1184C21.9048 27.1184 21.9162 27.175 21.9276 27.2825C22.0072 27.8485 22.0584 28.4146 22.1494 28.9806C22.258 29.8012 22.496 30.5997 22.8547 31.3465C23.1002 31.8606 23.5198 32.2723 24.0399 32.5093C24.5599 32.7463 25.1472 32.7936 25.6988 32.6427C26.2268 32.5154 26.6955 32.2127 27.0274 31.7846C27.3594 31.3565 27.5348 30.8287 27.5247 30.2881M5.11933 7.94732C4.587 7.94157 4.06725 8.10841 3.63864 8.42262C3.21003 8.73683 2.89584 9.18135 2.74358 9.68897C2.59131 10.1966 2.60923 10.7397 2.79464 11.2363C2.98004 11.7329 3.32285 12.156 3.77126 12.4415C4.45785 12.8317 5.20919 13.0963 5.9896 13.2226C6.6608 13.3528 7.33768 13.4207 8.01456 13.5113C8.15676 13.5113 8.26484 13.5453 8.21933 13.3188C8.1397 12.8887 8.11694 12.4415 8.05438 12.0057C7.94619 11.0611 7.68092 10.1411 7.26942 9.28313C7.07146 8.88343 6.76533 8.54663 6.38548 8.31064C6.00563 8.07465 5.56713 7.94882 5.11933 7.94732ZM32.8373 10.3925C32.8436 10.0233 32.7643 9.65764 32.6054 9.32395C32.4464 8.99026 32.2123 8.69756 31.9212 8.46863C31.63 8.2397 31.2897 8.08071 30.9267 8.00403C30.5637 7.92736 30.1878 7.93507 29.8283 8.02657C29.4298 8.11981 29.0609 8.31045 28.755 8.58124C28.4491 8.85202 28.2159 9.19442 28.0764 9.57746C27.6319 10.7664 27.3636 12.0134 27.2801 13.2792C27.2516 13.5169 27.3654 13.5339 27.5474 13.5113L28.6224 13.3698C29.4723 13.2807 30.3064 13.0789 31.1024 12.7698C32.2856 12.2774 32.8089 11.5246 32.8089 10.3982M10.4946 32.688C10.6233 32.6974 10.7526 32.6974 10.8813 32.688C11.3273 32.604 11.7423 32.402 12.0826 32.1032C12.4229 31.8043 12.676 31.4198 12.8153 30.9899C13.2362 29.7837 13.4963 28.5278 13.5889 27.2542C13.5889 27.1354 13.5434 27.1127 13.4467 27.124C12.4485 27.2139 11.4593 27.3843 10.4889 27.6335C9.81645 27.7785 9.19326 28.0944 8.68007 28.5504C8.33474 28.9015 8.10428 29.3484 8.019 29.8323C7.93372 30.3163 7.99761 30.8145 8.20226 31.2616C8.39523 31.699 8.71466 32.0692 9.11985 32.3253C9.52505 32.5813 9.99767 32.7115 10.4775 32.6993M21.7569 18.9847H24.2313C24.3336 18.9847 24.4474 19.0186 24.436 18.8319C24.3892 18.0779 24.3892 17.3218 24.436 16.5678C24.436 16.3697 24.3905 16.3018 24.1801 16.3018C22.5874 16.3018 20.9947 16.3018 19.4021 16.3018C19.0892 16.3018 19.0892 16.3018 19.0892 15.9791C19.0892 14.4113 19.0892 12.8434 19.0892 11.2755C19.0892 11.0944 19.0551 11.0208 18.8447 11.0208C18.0862 11.0208 17.3278 11.0208 16.5694 11.0208C16.3817 11.0208 16.3305 11.0717 16.3362 11.2585C16.3362 11.9887 16.3703 12.7189 16.3703 13.449C16.3703 14.3037 16.3703 15.1471 16.3703 16.0074C16.3703 16.2452 16.3135 16.3074 16.0689 16.3074C14.4762 16.3074 12.8835 16.3074 11.2909 16.3074C11.1544 16.3074 11.0406 16.3074 11.0406 16.4999C11.0406 17.2697 11.0406 18.0451 11.0406 18.8149C11.0406 18.962 11.0861 19.013 11.2397 19.0073C12.8892 18.9337 14.5445 19.0073 16.1883 18.9677C16.3191 18.9677 16.359 19.013 16.359 19.1375C16.359 19.4432 16.359 19.7432 16.359 20.0488C16.359 21.3676 16.359 22.6921 16.3191 24.0109C16.3191 24.243 16.3874 24.2939 16.6092 24.2939C17.3373 24.2939 18.0635 24.2939 18.7878 24.2939C18.9982 24.2939 19.0494 24.2373 19.0494 24.0336C19.0494 22.4317 19.0494 20.8299 19.0494 19.2281C19.0494 19.03 19.0949 18.9564 19.3054 18.962C20.1074 18.962 20.9094 18.962 21.7114 18.962M10.4604 0.00608274C11.4478 -0.00738873 12.417 0.271737 13.2445 0.807954C14.072 1.34417 14.7206 2.11323 15.1076 3.0173C15.6214 4.20031 15.9513 5.45425 16.0859 6.73604C16.1428 7.17188 16.194 7.61337 16.2338 8.05487C16.2338 8.21335 16.3021 8.28127 16.4784 8.28127C17.3146 8.28127 18.145 8.28127 18.9812 8.28127C19.1802 8.28127 19.2485 8.22468 19.2656 8.02091C19.3608 6.69643 19.5953 5.38554 19.9652 4.10972C20.2487 3.08508 20.7821 2.14598 21.518 1.37585C22.2406 0.698548 23.1454 0.244899 24.1224 0.0701243C25.0994 -0.10465 26.1064 0.00698753 27.0208 0.391455C27.9351 0.775922 28.7174 1.41663 29.2725 2.23558C29.8275 3.05452 30.1313 4.01637 30.1469 5.00403C30.1469 5.21346 30.2094 5.27572 30.4313 5.28704C31.5687 5.33188 32.6639 5.72748 33.5654 6.41907C34.0922 6.83691 34.5309 7.35409 34.8564 7.94098C35.1819 8.52786 35.3878 9.17291 35.4623 9.83914C35.5368 10.5054 35.4785 11.1797 35.2906 11.8234C35.1027 12.4672 34.789 13.0677 34.3674 13.5905C33.7638 14.3117 32.9786 14.8605 32.0922 15.181C31.0576 15.5875 29.9729 15.8541 28.867 15.9735C28.3551 16.0357 27.8432 16.1206 27.3256 16.1886C27.1663 16.1886 27.1037 16.2735 27.1094 16.4433C27.1094 17.281 27.1094 18.1413 27.1094 18.9564C27.1094 19.0979 27.1663 19.1318 27.2971 19.1488C28.1219 19.2507 28.9524 19.33 29.7658 19.4828C31.2077 19.6769 32.5772 20.2298 33.7474 21.0903C34.5702 21.7523 35.1354 22.679 35.3458 23.7109C35.5217 24.3888 35.5536 25.0957 35.4394 25.7864C35.3252 26.4772 35.0674 27.1367 34.6825 27.7227C34.2976 28.3087 33.794 28.8083 33.204 29.1896C32.614 29.5709 31.9505 29.8255 31.256 29.9372C30.9747 30.0048 30.6866 30.0408 30.3971 30.0447C30.2094 30.0447 30.1639 30.1126 30.1525 30.2881C30.1235 31.3277 29.7958 32.3373 29.2083 33.1974C28.8365 33.7428 28.3566 34.2069 27.7981 34.5612C27.2396 34.9155 26.6143 35.1525 25.9604 35.2577C25.0982 35.4338 24.2043 35.3765 23.3719 35.0917C22.5395 34.807 21.7992 34.3053 21.228 33.6389C20.5913 32.8802 20.1396 31.9852 19.9083 31.0239C19.5674 29.7915 19.3483 28.529 19.2542 27.2542C19.2542 27.0674 19.1802 27.0108 18.9869 26.9995C18.1678 26.9656 17.3544 26.9712 16.541 26.9995C16.3135 26.9995 16.2509 27.0788 16.2281 27.2882C16.1437 28.4986 15.9438 29.6983 15.6309 30.8711C15.405 31.78 15.0052 32.6371 14.4535 33.3955C13.6991 34.3746 12.5992 35.0321 11.3762 35.2351C10.6859 35.3649 9.97601 35.3508 9.29144 35.1936C8.60688 35.0365 7.96251 34.7398 7.39907 34.3222C6.83563 33.9046 6.36537 33.3753 6.01801 32.7676C5.67064 32.1599 5.45373 31.4872 5.38098 30.7918C5.35471 30.6041 5.33762 30.4152 5.32979 30.2258C5.32979 30.0843 5.26153 30.0503 5.13071 30.0447C3.80719 30.0142 2.54064 29.5028 1.56997 28.607C0.794567 27.8922 0.276906 26.9435 0.0967595 25.9071C-0.0379888 25.2072 -0.025154 24.4871 0.134447 23.7924C0.294049 23.0976 0.596936 22.4435 1.02392 21.8714C1.63329 21.0692 2.46303 20.4598 3.41291 20.1167C4.46525 19.7093 5.56676 19.441 6.68924 19.3186C7.1841 19.2507 7.68465 19.1885 8.1852 19.1375C8.31603 19.1375 8.37291 19.0866 8.36722 18.9451C8.36722 18.0734 8.36722 17.2017 8.36722 16.3301C8.36722 16.2112 8.33309 16.1603 8.20226 16.1489C7.34337 16.0584 6.49584 15.9791 5.63126 15.815C4.35402 15.6248 3.1334 15.1613 2.05346 14.4565C1.49166 14.0623 1.02161 13.5525 0.675173 12.9617C0.328737 12.3708 0.114017 11.7128 0.0455689 11.0321C-0.0700538 10.2195 0.0202831 9.39093 0.308368 8.62186C0.596452 7.85279 1.07315 7.16757 1.69511 6.6285C2.44579 5.93703 3.39794 5.50095 4.41401 5.38326C4.65291 5.35496 4.88612 5.30968 5.12502 5.29836C5.36392 5.28704 5.32979 5.21911 5.34116 5.05497C5.3729 3.9228 5.75863 2.82865 6.44465 1.92489C7.22524 0.931396 8.35156 0.264975 9.60153 0.0570223C9.7139 0.0328982 9.82802 0.017755 9.94282 0.0117398C10.1135 0.0117398 10.2841 0.0117398 10.4604 0.0117398" fill="#004966"/>
<path d="M60.8624 12.362C60.6975 13.262 60.5382 14.1167 60.2936 14.9544C59.046 19.358 57.8022 23.7635 56.5622 28.1709C56.5589 28.2061 56.5482 28.2402 56.5309 28.2711C56.5136 28.302 56.49 28.3289 56.4616 28.3502C56.4333 28.3715 56.4008 28.3867 56.3662 28.3948C56.3316 28.4029 56.2957 28.4038 56.2608 28.3973C54.7174 28.3973 53.1741 28.3973 51.6307 28.3973C51.4259 28.3973 51.3633 28.3181 51.3178 28.1483C49.7593 22.0391 48.2008 15.943 46.6422 9.86023C46.5569 9.52062 46.4147 9.19798 46.3123 8.86403C46.2989 8.81205 46.2689 8.76578 46.2269 8.73212C46.1849 8.69846 46.133 8.67921 46.0791 8.67725C45.7151 8.63196 45.3454 8.57537 44.9813 8.54141C44.8505 8.54141 44.8164 8.49047 44.8164 8.36594C44.8164 7.23391 44.8164 6.10187 44.8164 4.96983C44.8164 4.83965 44.8562 4.80568 44.987 4.80568C46.0279 4.83964 47.0689 4.74342 48.1041 4.80568C48.7573 4.77341 49.4007 4.97411 49.9186 5.3717C50.3233 5.79428 50.584 6.33294 50.6637 6.91127C51.3577 9.95268 52.0554 12.9922 52.7569 16.0298C53.1437 17.7279 53.5419 19.3863 53.8945 21.0674C54.0197 21.6334 54.0822 22.1994 54.1789 22.7654C54.2756 22.6428 54.3277 22.4912 54.3268 22.3353C54.6852 20.558 55.2142 18.8203 55.6863 17.0713C56.7594 13.0752 57.8345 9.08101 58.9114 5.08869C58.9142 5.0556 58.9237 5.02342 58.9394 4.99413C58.9552 4.96485 58.9767 4.93908 59.0029 4.9184C59.029 4.89772 59.059 4.88258 59.0913 4.8739C59.1235 4.86523 59.1571 4.8632 59.1901 4.86794C60.3278 4.86794 61.4199 4.86794 62.5347 4.86794C62.5697 4.86236 62.6054 4.86406 62.6397 4.87292C62.6739 4.88178 62.706 4.89761 62.7338 4.91942C62.7616 4.94123 62.7845 4.96853 62.8012 4.99962C62.8178 5.0307 62.8278 5.06489 62.8305 5.10001C63.3386 7.13391 63.8525 9.1678 64.372 11.2017C65.1683 14.3148 65.9665 17.4298 66.7667 20.5467C66.9612 21.2912 67.1075 22.0475 67.2046 22.8107C67.3051 22.6158 67.3614 22.4014 67.3696 22.1825C67.7166 20.1674 68.2456 18.2203 68.7006 16.211C69.4116 13.1262 70.134 10.0414 70.8507 6.95655C70.9282 6.40477 71.1587 5.88539 71.5162 5.45661C71.9177 5.10395 72.4313 4.90352 72.9667 4.89059C74.1594 4.81204 75.3554 4.79314 76.5501 4.83398C76.7265 4.83398 76.7094 4.93021 76.7094 5.03775C76.7094 5.79244 76.7094 6.56411 76.7094 7.35276C76.7094 7.68106 76.7094 8.00935 76.7094 8.33764C76.7094 8.47914 76.681 8.53008 76.5217 8.54706C76.1633 8.54706 75.7993 8.60933 75.441 8.67159C75.3775 8.67651 75.3171 8.70095 75.2682 8.74151C75.2193 8.78207 75.1842 8.83675 75.1679 8.89799C74.8802 9.73124 74.6391 10.5797 74.4456 11.4394C73.5241 15.0091 72.6045 18.5807 71.6868 22.1542C71.1673 24.1616 70.6478 26.1672 70.1283 28.1709C70.0885 28.3294 70.0316 28.403 69.8439 28.403C68.3271 28.403 66.8103 28.403 65.2934 28.403C65.0887 28.403 64.9977 28.3521 64.9408 28.1426C63.9511 24.4522 62.9575 20.7655 61.9602 17.0826C61.5507 15.5714 61.1298 14.0601 60.8624 12.5092C60.8492 12.4555 60.8281 12.404 60.7999 12.3564" fill="#004966"/>
<path d="M85.503 17.6881C86.6406 17.6881 87.7498 17.6881 88.8703 17.6881C89.0694 17.6881 89.1661 17.6484 89.1149 17.4334C89.0637 17.2183 89.0524 17.0937 89.0126 16.9296C88.9233 16.4779 88.7382 16.0502 88.4697 15.6753C88.2012 15.3004 87.8555 14.9867 87.4555 14.7553C87.0555 14.5239 86.6105 14.3801 86.1503 14.3333C85.69 14.2866 85.225 14.3381 84.7863 14.4844C84.0785 14.6895 83.4374 15.0762 82.9272 15.6057C82.4171 16.1352 82.0558 16.789 81.8797 17.5013C81.8114 17.722 81.9764 17.6767 82.0845 17.6767H85.4973M87.5962 20.6823C85.7419 20.6823 83.8819 20.6823 82.0219 20.6823C81.8114 20.6823 81.7546 20.7332 81.783 20.937C81.8631 21.7081 82.1383 22.4464 82.5829 23.0828C83.0276 23.7193 83.6271 24.2332 84.3256 24.5765C85.1321 24.9761 86.0224 25.1794 86.9233 25.1695C87.8242 25.1597 88.7099 24.937 89.5074 24.5199C90.167 24.2009 90.789 23.8098 91.3617 23.3539C91.4869 23.2577 91.5494 23.2464 91.6348 23.3935C92.1732 24.2954 92.7174 25.1935 93.2672 26.0878C93.3525 26.218 93.3127 26.2802 93.2047 26.3651C92.1828 27.2225 91.0021 27.8724 89.7292 28.2783C88.3516 28.7377 86.8923 28.9035 85.4461 28.765C83.3152 28.6216 81.3086 27.7147 79.7979 26.2123C78.5317 24.9383 77.7153 23.2897 77.4714 21.5143C77.122 19.5325 77.392 17.4917 78.245 15.6674C78.7694 14.5257 79.5657 13.5285 80.5647 12.7622C81.5638 11.9958 82.7356 11.4834 83.9786 11.2694C85.6275 10.8997 87.3481 11.0058 88.9386 11.5751C89.9135 11.9406 90.7901 12.5258 91.4997 13.2849C92.2092 14.044 92.7324 14.9564 93.0283 15.9504C93.4416 17.2846 93.5866 18.6867 93.4549 20.0767C93.4549 20.1106 93.4549 20.1446 93.4549 20.1729C93.4549 20.337 93.4891 20.5578 93.4037 20.6427C93.3184 20.7276 93.0568 20.6766 92.8804 20.6766H87.5962" fill="#004966"/>
<path d="M139.392 16.3581C138.823 16.3581 138.288 16.3581 137.731 16.3581C137.566 16.3581 137.515 16.3128 137.52 16.1486C137.555 15.0166 137.236 14.694 135.979 14.4053C135.179 14.2365 134.345 14.3548 133.624 14.7392C133.34 14.88 133.117 15.1196 132.998 15.4128C132.892 15.6715 132.885 15.9604 132.979 16.2237C133.074 16.4871 133.263 16.7063 133.51 16.8392C133.883 17.1117 134.291 17.3344 134.722 17.5014C135.916 18.0052 137.162 18.407 138.345 18.9448C139.181 19.2976 139.951 19.7895 140.62 20.3994C141.365 21.0999 141.823 22.0494 141.906 23.0654C142.029 24.0833 141.813 25.1132 141.292 25.9974C140.688 26.9992 139.759 27.766 138.658 28.1709C137.473 28.6392 136.2 28.844 134.927 28.7708C132.801 28.6911 130.761 27.9196 129.119 26.5747C128.852 26.354 128.619 26.0992 128.363 25.8672C128.243 25.7653 128.272 25.6804 128.363 25.5728C128.966 24.7502 129.565 23.9276 130.16 23.105C130.268 22.9578 130.342 22.9409 130.484 23.071C131.099 23.6541 131.776 24.1685 132.504 24.6049C133.389 25.1441 134.406 25.43 135.444 25.4313C136.001 25.4368 136.546 25.2751 137.009 24.9672C137.194 24.8631 137.349 24.7124 137.458 24.5301C137.567 24.3478 137.625 24.1402 137.628 23.9282C137.631 23.7162 137.578 23.5072 137.474 23.322C137.371 23.1368 137.22 22.9819 137.037 22.8729C136.325 22.4094 135.562 22.0295 134.762 21.7409C133.625 21.3239 132.522 20.8206 131.463 20.2353C130.444 19.7083 129.621 18.8715 129.114 17.8467C128.742 17.0748 128.605 16.2121 128.718 15.3638C128.831 14.5156 129.19 13.7184 129.751 13.0695C130.556 12.1399 131.663 11.5193 132.879 11.3148C134.96 10.8191 137.143 10.9692 139.136 11.745C139.918 12.031 140.576 12.5794 140.996 13.2959C141.212 13.7134 141.318 14.1791 141.303 14.6487C141.303 15.1524 141.303 15.6505 141.303 16.1543C141.303 16.3298 141.246 16.3807 141.076 16.3807C140.507 16.3807 139.972 16.3807 139.415 16.3807" fill="#004966"/>
<path d="M146.593 18.854C146.593 17.5975 146.593 16.3409 146.593 15.0844C146.593 14.8919 146.542 14.8297 146.343 14.8353C145.774 14.8353 145.205 14.8353 144.636 14.8353C144.471 14.8353 144.403 14.807 144.403 14.6202C144.403 13.624 144.403 12.6297 144.403 11.6373C144.403 11.4562 144.471 11.4222 144.636 11.4279C145.239 11.4279 145.842 11.4279 146.445 11.4279C146.644 11.4279 146.695 11.3713 146.695 11.1788C146.695 9.81473 146.695 8.45062 146.695 7.08651C146.695 6.91105 146.695 6.82615 146.934 6.83181C148.171 6.83181 149.409 6.83181 150.649 6.83181C150.842 6.83181 150.905 6.87709 150.899 7.0752C150.899 7.7148 150.865 8.3544 150.865 8.994C150.865 9.72417 150.865 10.4543 150.865 11.1845C150.865 11.3713 150.916 11.4222 151.098 11.4222C152.196 11.4222 153.294 11.4222 154.391 11.4222C154.585 11.4222 154.647 11.4901 154.67 11.6656C154.746 12.2853 154.763 12.9106 154.721 13.5335C154.721 13.8844 154.721 14.241 154.721 14.5919C154.721 14.7787 154.664 14.8297 154.482 14.8297C153.345 14.8297 152.253 14.8297 151.144 14.8297C150.962 14.8297 150.888 14.8297 150.888 15.0674C150.853 17.0881 150.888 19.1087 150.888 21.1294C150.875 21.5717 150.911 22.0139 150.996 22.4483C151.112 23.0567 151.428 23.6093 151.895 24.0192C152.361 24.4291 152.951 24.673 153.572 24.7123C153.99 24.7504 154.41 24.7617 154.829 24.7463C154.977 24.7463 155.034 24.7803 155.029 24.9331C155.029 26.0651 155.029 27.1519 155.029 28.2613C155.029 28.5047 154.864 28.4764 154.733 28.4877C154.001 28.56 153.263 28.56 152.531 28.4877C151.636 28.4068 150.759 28.1872 149.932 27.8368C149.105 27.4968 148.379 26.9524 147.822 26.2551C147.266 25.5578 146.898 24.7306 146.752 23.852C146.649 23.3282 146.599 22.7953 146.604 22.2615C146.604 21.1294 146.604 19.9974 146.604 18.8654" fill="#004966"/>
<path d="M113.142 15.4637V23.954C113.142 24.52 113.375 24.7464 113.932 24.7521C114.268 24.7521 114.609 24.7521 114.945 24.7521C115.076 24.7521 115.132 24.7521 115.132 24.9219C115.132 26.0237 115.132 27.1237 115.132 28.2218C115.132 28.3689 115.07 28.3972 114.945 28.3972C113.688 28.3972 112.436 28.3972 111.179 28.3972C110.85 28.3979 110.521 28.3599 110.201 28.284C109.822 28.2061 109.483 27.9987 109.242 27.6978C109.001 27.397 108.873 27.0216 108.881 26.6369C108.802 24.9728 108.853 23.3031 108.847 21.6333C108.847 18.124 108.847 14.6166 108.847 11.111C108.847 10.4884 108.847 9.86012 108.847 9.2375C108.859 9.14171 108.851 9.04442 108.822 8.95223C108.793 8.86003 108.745 8.77509 108.68 8.70316C108.615 8.63123 108.536 8.57398 108.447 8.53531C108.358 8.49664 108.262 8.47745 108.164 8.47904C107.786 8.45473 107.406 8.45473 107.027 8.47904C106.89 8.47904 106.822 8.47903 106.822 8.29225C106.822 7.18851 106.822 6.09044 106.822 4.9867C106.822 4.86218 106.822 4.81689 106.987 4.81689C108.398 4.81689 109.831 4.81689 111.219 4.81689C112.084 4.81689 112.76 5.0999 113.045 6.09044C113.13 6.40782 113.17 6.73552 113.164 7.06399V15.4467" fill="#004966"/>
<path d="M102.601 15.2826V23.8861C102.601 24.486 102.84 24.7351 103.443 24.7464C103.773 24.7464 104.103 24.7464 104.433 24.7464C104.564 24.7464 104.621 24.7464 104.621 24.9162C104.621 26.0199 104.621 27.118 104.621 28.2218C104.621 28.352 104.581 28.3916 104.456 28.3859C103.164 28.3859 101.879 28.3859 100.593 28.3859C100.263 28.3881 99.9342 28.3463 99.6151 28.2614C99.2842 28.185 98.9861 28.0065 98.7634 27.7513C98.5406 27.4961 98.4047 27.1774 98.3751 26.8407C98.3404 26.5553 98.3252 26.2678 98.3296 25.9803C98.3296 20.4032 98.3296 14.826 98.3296 9.24882C98.3401 9.15093 98.3296 9.05194 98.2988 8.95838C98.2679 8.86483 98.2176 8.77885 98.1509 8.7061C98.0842 8.63336 98.0028 8.5755 97.9121 8.53636C97.8213 8.49722 97.7232 8.47768 97.6243 8.47904C97.2455 8.45361 96.8655 8.45361 96.4867 8.47904C96.3274 8.47904 96.2762 8.43376 96.2762 8.26961C96.2762 7.18286 96.2762 6.09799 96.2762 5.015C96.2762 4.83954 96.3388 4.81689 96.4867 4.81689C97.8689 4.81689 99.2454 4.81689 100.622 4.81689C100.918 4.81996 101.212 4.8716 101.492 4.96972C101.841 5.09183 102.141 5.32345 102.346 5.62971C102.551 5.93597 102.651 6.30029 102.63 6.66778C102.63 8.99977 102.63 11.3318 102.63 13.6638V15.2656" fill="#004966"/>
<path d="M119.592 20.8974C119.592 19.2069 119.592 17.5089 119.592 15.8033C119.592 15.3221 119.427 15.1297 118.949 15.0674C118.598 15.0218 118.242 15.0218 117.891 15.0674C117.578 15.1127 117.55 15.0674 117.55 14.7674C117.55 13.7316 117.55 12.6958 117.55 11.66C117.55 11.4959 117.595 11.4336 117.772 11.4336H121.856C122.127 11.4383 122.397 11.4802 122.658 11.5581C123.009 11.6707 123.315 11.8938 123.528 12.1938C123.741 12.4939 123.851 12.8548 123.841 13.2222C123.943 14.8693 123.875 16.5221 123.886 18.1749C123.886 20.1333 123.886 22.0861 123.886 24.0388C123.884 24.1316 123.9 24.2239 123.935 24.3102C123.97 24.3964 124.022 24.4747 124.088 24.5403C124.154 24.606 124.232 24.6576 124.319 24.692C124.405 24.7265 124.498 24.743 124.592 24.7407C124.946 24.7606 125.301 24.7606 125.655 24.7407C125.849 24.7407 125.923 24.7803 125.928 24.9954C125.968 26.0312 125.928 27.0614 125.928 28.0972C125.928 28.301 125.871 28.3519 125.661 28.3632C124.432 28.4142 123.204 28.3632 121.969 28.3632C121.615 28.3697 121.262 28.3317 120.917 28.25C120.545 28.1585 120.215 27.9452 119.98 27.6444C119.745 27.3436 119.618 26.9727 119.62 26.5916C119.586 26.1897 119.569 25.7878 119.569 25.386C119.569 23.8766 119.569 22.3672 119.569 20.8578" fill="#004966"/>
<path d="M123.534 6.74733C123.534 7.31335 123.534 7.87937 123.534 8.44539C123.534 8.79066 123.534 8.79066 123.192 8.79066C122.151 8.79066 121.116 8.79066 120.075 8.79066C119.882 8.79066 119.825 8.73972 119.825 8.54161C119.825 7.74918 119.825 6.9511 119.825 6.15301C119.825 5.77944 119.825 5.40021 119.825 5.02097C119.825 4.87947 119.876 4.83984 120.013 4.83984H123.352C123.511 4.83984 123.545 4.89645 123.545 5.04361C123.545 5.60963 123.545 6.17565 123.545 6.74167" fill="#004966"/>
</g>
<defs>
<clipPath id="clip0_25_189">
<rect width="155" height="35.3309" fill="#004966"/>
</clipPath>
</defs>
</svg>
